# xmcd
#
# Track frame offsets:
# 150
# 20890
# 44120
# 59621
# 79917
# 98999
# 118899
# 134624
# 148700
# 166110
# 183034
# 207828
# 225206
# 243715
# 265254
# 296373
#
# Disc length: 4179 seconds
#
#
# Revision: 3
# Processed by: cddbd v1.5.1PL0 Copyright (c) Steve Scherf et al.
# Submitted via: FreeRIP 2.942 
#
DISCID=f0105110
DTITLE=Various Artist - 100% Salsa Explosiva
DYEAR=2003
DGENRE=Salsa
TTITLE0=La Vida es un Carneval - Celia Cruz
TTITLE1=La Collegiala - Eduardo y su Conjunto
TTITLE2=El Jardinero del Amor - Roberto Nodarse
TTITLE3=Besito de Coco - Sonora Matancera
TTITLE4=Las Chicas de la Esquina - Grupo Galé
TTITLE5=Que suene mi Campana - Sonora Carruseles
TTITLE6=Santa Barbara (Que viva Chango) - Celina Gonzales
TTITLE7=Pensando en ti - Luis Felipe Gonzáles
TTITLE8=La Sandunguita - Issac Delgado
TTITLE9=La Negra Tomasa - Sonora Majestad
TTITLE10=Poupourri Celina - Celina Gonzales y Reutilio jr.
TTITLE11=Me voy pa'Cali - Oscar D'Leon
TTITLE12=La Charanga Campesina - Fruko
TTITLE13=El As de la Rumba - José Alberto
TTITLE14=El Son de Celia y Oscar - Celia Cruz and Oscar D'Leon
TTITLE15=Federico Boogaloo - Sonora Carruseles
EXTD=16 Ingredients from Cuba, Colombia and Venezuela
EXTT0=
EXTT1=
EXTT2=
EXTT3=
EXTT4=
EXTT5=
EXTT6=
EXTT7=
EXTT8=
EXTT9=
EXTT10=
EXTT11=
EXTT12=
EXTT13=
EXTT14=
EXTT15=
PLAYORDER=
